<mxfile host="app.diagrams.net" modified="2023-10-03T13:15:38.828Z" agent="Mozilla/5.0 (X11; Linux x86_64; rv:109.0) Gecko/20100101 Firefox/117.0" etag="Eg5-dauOMsvCA8gWSPr5" version="21.8.2" type="github">
  <diagram name="Página-1" id="507ssJq4naJnl4tNUfq0">
    <mxGraphModel dx="2777" dy="1025" grid="1" gridSize="10" guides="1" tooltips="1" connect="1" arrows="1" fold="1" page="1" pageScale="1" pageWidth="827" pageHeight="1169" math="0" shadow="0">
      <root>
        <mxCell id="0" />
        <mxCell id="1" parent="0" />
        <mxCell id="m84s4OXWv2M9TysQhL6w-51" style="edgeStyle=orthogonalEdgeStyle;rounded=0;orthogonalLoop=1;jettySize=auto;html=1;exitX=1;exitY=0.75;exitDx=0;exitDy=0;entryX=0;entryY=0.5;entryDx=0;entryDy=0;strokeWidth=5;endArrow=none;endFill=0;" parent="1" source="m84s4OXWv2M9TysQhL6w-52" target="m84s4OXWv2M9TysQhL6w-64" edge="1">
          <mxGeometry relative="1" as="geometry" />
        </mxCell>
        <mxCell id="m84s4OXWv2M9TysQhL6w-78" value="" style="edgeStyle=orthogonalEdgeStyle;rounded=0;orthogonalLoop=1;jettySize=auto;html=1;strokeWidth=5;endArrow=none;endFill=0;" parent="1" source="m84s4OXWv2M9TysQhL6w-52" target="m84s4OXWv2M9TysQhL6w-72" edge="1">
          <mxGeometry relative="1" as="geometry" />
        </mxCell>
        <mxCell id="m84s4OXWv2M9TysQhL6w-52" value="" style="rounded=0;whiteSpace=wrap;html=1;fillColor=#f5f5f5;fontColor=#333333;strokeColor=#666666;strokeWidth=5;" parent="1" vertex="1">
          <mxGeometry x="-693" y="750" width="460" height="240" as="geometry" />
        </mxCell>
        <mxCell id="m84s4OXWv2M9TysQhL6w-53" value="" style="edgeStyle=orthogonalEdgeStyle;rounded=0;orthogonalLoop=1;jettySize=auto;html=1;endArrow=none;endFill=0;strokeWidth=5;" parent="1" source="m84s4OXWv2M9TysQhL6w-54" target="m84s4OXWv2M9TysQhL6w-71" edge="1">
          <mxGeometry relative="1" as="geometry" />
        </mxCell>
        <mxCell id="m84s4OXWv2M9TysQhL6w-54" value="&lt;font style=&quot;font-size: 27px;&quot;&gt;Tournament&lt;/font&gt;" style="rounded=0;whiteSpace=wrap;html=1;fillColor=#1ba1e2;strokeColor=#006EAF;fontColor=#ffffff;strokeWidth=5;" parent="1" vertex="1">
          <mxGeometry x="-538" y="920" width="160" height="40" as="geometry" />
        </mxCell>
        <mxCell id="m84s4OXWv2M9TysQhL6w-55" value="" style="edgeStyle=orthogonalEdgeStyle;rounded=0;orthogonalLoop=1;jettySize=auto;html=1;endArrow=none;endFill=0;strokeWidth=5;" parent="1" source="m84s4OXWv2M9TysQhL6w-56" edge="1">
          <mxGeometry relative="1" as="geometry">
            <mxPoint x="-513" y="845" as="targetPoint" />
          </mxGeometry>
        </mxCell>
        <mxCell id="m84s4OXWv2M9TysQhL6w-56" value="&lt;pre dir=&quot;ltr&quot; style=&quot;text-align: left; line-height: 100%; font-size: 27px;&quot; id=&quot;tw-target-text&quot; data-placeholder=&quot;Traducción&quot; class=&quot;tw-data-text tw-text-large tw-ta&quot;&gt;&lt;font style=&quot;font-size: 27px;&quot;&gt;User&lt;/font&gt;&lt;/pre&gt;" style="rounded=0;whiteSpace=wrap;html=1;fillColor=#1ba1e2;strokeColor=#006EAF;fontColor=#ffffff;strokeWidth=5;" parent="1" vertex="1">
          <mxGeometry x="-673" y="825" width="90" height="40" as="geometry" />
        </mxCell>
        <mxCell id="m84s4OXWv2M9TysQhL6w-57" style="edgeStyle=orthogonalEdgeStyle;rounded=0;orthogonalLoop=1;jettySize=auto;html=1;entryX=1;entryY=0.5;entryDx=0;entryDy=0;endArrow=none;endFill=0;strokeWidth=5;" parent="1" source="m84s4OXWv2M9TysQhL6w-58" edge="1">
          <mxGeometry relative="1" as="geometry">
            <mxPoint x="-403" y="845" as="targetPoint" />
          </mxGeometry>
        </mxCell>
        <mxCell id="m84s4OXWv2M9TysQhL6w-58" value="&lt;font style=&quot;font-size: 27px;&quot;&gt;Date&lt;/font&gt;" style="rounded=0;whiteSpace=wrap;html=1;fillColor=#1ba1e2;strokeColor=#006EAF;fontColor=#ffffff;perimeterSpacing=0;strokeWidth=5;" parent="1" vertex="1">
          <mxGeometry x="-323" y="825" width="80" height="40" as="geometry" />
        </mxCell>
        <mxCell id="m84s4OXWv2M9TysQhL6w-59" style="edgeStyle=orthogonalEdgeStyle;rounded=0;orthogonalLoop=1;jettySize=auto;html=1;exitX=1;exitY=0.5;exitDx=0;exitDy=0;entryX=1;entryY=0.5;entryDx=0;entryDy=0;" parent="1" edge="1">
          <mxGeometry relative="1" as="geometry">
            <mxPoint x="-388" y="845" as="sourcePoint" />
            <mxPoint x="-388" y="845" as="targetPoint" />
          </mxGeometry>
        </mxCell>
        <mxCell id="m84s4OXWv2M9TysQhL6w-60" style="edgeStyle=orthogonalEdgeStyle;rounded=0;orthogonalLoop=1;jettySize=auto;html=1;exitX=0.5;exitY=1;exitDx=0;exitDy=0;" parent="1" edge="1">
          <mxGeometry relative="1" as="geometry">
            <mxPoint x="-443" y="880" as="sourcePoint" />
            <mxPoint x="-443" y="880" as="targetPoint" />
          </mxGeometry>
        </mxCell>
        <mxCell id="m84s4OXWv2M9TysQhL6w-61" style="edgeStyle=orthogonalEdgeStyle;rounded=0;orthogonalLoop=1;jettySize=auto;html=1;exitX=0.5;exitY=1;exitDx=0;exitDy=0;" parent="1" source="m84s4OXWv2M9TysQhL6w-52" target="m84s4OXWv2M9TysQhL6w-52" edge="1">
          <mxGeometry relative="1" as="geometry" />
        </mxCell>
        <mxCell id="m84s4OXWv2M9TysQhL6w-62" value="&lt;font style=&quot;font-size: 27px;&quot;&gt;Match&lt;/font&gt;" style="text;html=1;strokeColor=none;fillColor=none;align=center;verticalAlign=middle;whiteSpace=wrap;rounded=0;" parent="1" vertex="1">
          <mxGeometry x="-333" y="950" width="60" height="30" as="geometry" />
        </mxCell>
        <mxCell id="m84s4OXWv2M9TysQhL6w-64" value="&lt;pre dir=&quot;ltr&quot; style=&quot;text-align:left&quot; id=&quot;tw-target-text&quot; data-placeholder=&quot;Traducción&quot; class=&quot;tw-data-text tw-text-large tw-ta&quot;&gt;&lt;span style=&quot;font-size: 20px;&quot; lang=&quot;en&quot; class=&quot;Y2IQFc&quot;&gt;Round&lt;/span&gt;&lt;/pre&gt;" style="ellipse;whiteSpace=wrap;html=1;fillColor=#a0522d;strokeColor=#6D1F00;fontColor=#ffffff;strokeWidth=5;" parent="1" vertex="1">
          <mxGeometry x="-195" y="900" width="80" height="50" as="geometry" />
        </mxCell>
        <mxCell id="m84s4OXWv2M9TysQhL6w-66" value="&lt;b&gt;&lt;font color=&quot;#007fff&quot; style=&quot;font-size: 20px;&quot;&gt;[1,1]&lt;/font&gt;&lt;/b&gt;" style="text;html=1;strokeColor=none;fillColor=none;align=center;verticalAlign=middle;whiteSpace=wrap;rounded=0;" parent="1" vertex="1">
          <mxGeometry x="-577" y="853" width="40" height="20" as="geometry" />
        </mxCell>
        <mxCell id="m84s4OXWv2M9TysQhL6w-67" value="&lt;b&gt;&lt;font color=&quot;#007fff&quot; style=&quot;font-size: 20px;&quot;&gt;[1,1]&lt;/font&gt;&lt;/b&gt;" style="text;html=1;strokeColor=none;fillColor=none;align=center;verticalAlign=middle;whiteSpace=wrap;rounded=0;" parent="1" vertex="1">
          <mxGeometry x="-576" y="808" width="40" height="20" as="geometry" />
        </mxCell>
        <mxCell id="m84s4OXWv2M9TysQhL6w-68" value="&lt;b&gt;&lt;font color=&quot;#007fff&quot; style=&quot;font-size: 20px;&quot;&gt;[1,*]&lt;/font&gt;&lt;/b&gt;" style="text;html=1;strokeColor=none;fillColor=none;align=center;verticalAlign=middle;whiteSpace=wrap;rounded=0;" parent="1" vertex="1">
          <mxGeometry x="-369" y="818.5" width="40" height="25" as="geometry" />
        </mxCell>
        <mxCell id="m84s4OXWv2M9TysQhL6w-69" value="&lt;b&gt;&lt;font color=&quot;#007fff&quot; style=&quot;font-size: 20px;&quot;&gt;[1,1]&lt;/font&gt;&lt;/b&gt;" style="text;html=1;strokeColor=none;fillColor=none;align=center;verticalAlign=middle;whiteSpace=wrap;rounded=0;" parent="1" vertex="1">
          <mxGeometry x="-450" y="893" width="40" height="20" as="geometry" />
        </mxCell>
        <mxCell id="m84s4OXWv2M9TysQhL6w-70" value="" style="endArrow=none;html=1;rounded=0;entryX=0.5;entryY=0;entryDx=0;entryDy=0;exitX=1;exitY=0.5;exitDx=0;exitDy=0;targetPerimeterSpacing=1;strokeWidth=6;endSize=5;" parent="1" source="m84s4OXWv2M9TysQhL6w-56" edge="1">
          <mxGeometry width="50" height="50" relative="1" as="geometry">
            <mxPoint x="-493" y="890" as="sourcePoint" />
            <mxPoint x="-458" y="810" as="targetPoint" />
          </mxGeometry>
        </mxCell>
        <mxCell id="m84s4OXWv2M9TysQhL6w-71" value="&lt;font style=&quot;font-size: 17px;&quot;&gt;Play&lt;/font&gt;" style="rhombus;whiteSpace=wrap;html=1;fillColor=#008a00;fontColor=#ffffff;strokeColor=#005700;strokeWidth=6;" parent="1" vertex="1">
          <mxGeometry x="-513" y="810" width="110" height="70" as="geometry" />
        </mxCell>
        <mxCell id="m84s4OXWv2M9TysQhL6w-72" value="&lt;pre dir=&quot;ltr&quot; style=&quot;text-align: left; font-size: 11px;&quot; id=&quot;tw-target-text&quot; data-placeholder=&quot;Traducción&quot; class=&quot;tw-data-text tw-text-large tw-ta&quot;&gt;&lt;font style=&quot;font-size: 20px;&quot;&gt;Result&lt;/font&gt;&lt;/pre&gt;" style="ellipse;whiteSpace=wrap;html=1;fillColor=#a0522d;strokeColor=#6D1F00;fontColor=#ffffff;strokeWidth=5;" parent="1" vertex="1">
          <mxGeometry x="-184" y="768.5" width="80" height="50" as="geometry" />
        </mxCell>
        <mxCell id="m84s4OXWv2M9TysQhL6w-189" style="edgeStyle=orthogonalEdgeStyle;rounded=0;orthogonalLoop=1;jettySize=auto;html=1;exitX=0;exitY=0.5;exitDx=0;exitDy=0;entryX=1;entryY=0.75;entryDx=0;entryDy=0;strokeWidth=5;endArrow=none;endFill=0;" parent="1" source="m84s4OXWv2M9TysQhL6w-133" target="m84s4OXWv2M9TysQhL6w-154" edge="1">
          <mxGeometry relative="1" as="geometry" />
        </mxCell>
        <mxCell id="m84s4OXWv2M9TysQhL6w-133" value="&lt;pre dir=&quot;ltr&quot; style=&quot;text-align: left; font-size: 11px;&quot; id=&quot;tw-target-text&quot; data-placeholder=&quot;Traducción&quot; class=&quot;tw-data-text tw-text-large tw-ta&quot;&gt;&lt;font style=&quot;font-size: 20px;&quot;&gt;Date&lt;/font&gt;&lt;/pre&gt;" style="ellipse;whiteSpace=wrap;html=1;fillColor=#a0522d;strokeColor=#6D1F00;fontColor=#ffffff;strokeWidth=5;" parent="1" vertex="1">
          <mxGeometry x="631" y="930" width="80" height="50" as="geometry" />
        </mxCell>
        <mxCell id="m84s4OXWv2M9TysQhL6w-188" style="edgeStyle=orthogonalEdgeStyle;rounded=0;orthogonalLoop=1;jettySize=auto;html=1;exitX=0;exitY=0.5;exitDx=0;exitDy=0;entryX=1;entryY=0.25;entryDx=0;entryDy=0;strokeWidth=5;endArrow=none;endFill=0;" parent="1" source="m84s4OXWv2M9TysQhL6w-135" target="m84s4OXWv2M9TysQhL6w-154" edge="1">
          <mxGeometry relative="1" as="geometry" />
        </mxCell>
        <mxCell id="m84s4OXWv2M9TysQhL6w-135" value="&lt;pre dir=&quot;ltr&quot; style=&quot;text-align: left; font-size: 11px;&quot; id=&quot;tw-target-text&quot; data-placeholder=&quot;Traducción&quot; class=&quot;tw-data-text tw-text-large tw-ta&quot;&gt;&lt;font style=&quot;font-size: 17px;&quot;&gt;Status&lt;/font&gt;&lt;br&gt;&lt;/pre&gt;" style="ellipse;whiteSpace=wrap;html=1;fillColor=#a0522d;strokeColor=#6D1F00;fontColor=#ffffff;strokeWidth=5;" parent="1" vertex="1">
          <mxGeometry x="631" y="710" width="80" height="50" as="geometry" />
        </mxCell>
        <mxCell id="m84s4OXWv2M9TysQhL6w-154" value="" style="rounded=0;whiteSpace=wrap;html=1;fillColor=#f5f5f5;fontColor=#333333;strokeColor=#666666;strokeWidth=5;" parent="1" vertex="1">
          <mxGeometry x="-30" y="724" width="580" height="250" as="geometry" />
        </mxCell>
        <mxCell id="m84s4OXWv2M9TysQhL6w-163" style="edgeStyle=orthogonalEdgeStyle;rounded=0;orthogonalLoop=1;jettySize=auto;html=1;exitX=0.5;exitY=1;exitDx=0;exitDy=0;" parent="1" source="m84s4OXWv2M9TysQhL6w-154" target="m84s4OXWv2M9TysQhL6w-154" edge="1">
          <mxGeometry relative="1" as="geometry" />
        </mxCell>
        <mxCell id="m84s4OXWv2M9TysQhL6w-174" value="" style="edgeStyle=orthogonalEdgeStyle;rounded=0;orthogonalLoop=1;jettySize=auto;html=1;strokeWidth=5;endArrow=none;endFill=0;" parent="1" target="m84s4OXWv2M9TysQhL6w-181" edge="1">
          <mxGeometry relative="1" as="geometry">
            <mxPoint x="76.99999999999977" y="872.037037037037" as="sourcePoint" />
          </mxGeometry>
        </mxCell>
        <mxCell id="m84s4OXWv2M9TysQhL6w-176" value="" style="edgeStyle=orthogonalEdgeStyle;rounded=0;orthogonalLoop=1;jettySize=auto;html=1;strokeWidth=5;endArrow=none;endFill=0;" parent="1" source="m84s4OXWv2M9TysQhL6w-177" target="m84s4OXWv2M9TysQhL6w-181" edge="1">
          <mxGeometry relative="1" as="geometry" />
        </mxCell>
        <mxCell id="m84s4OXWv2M9TysQhL6w-177" value="&lt;font style=&quot;font-size: 27px;&quot;&gt;Tournament&lt;/font&gt;" style="rounded=0;whiteSpace=wrap;html=1;fillColor=#1ba1e2;strokeColor=#006EAF;fontColor=#ffffff;strokeWidth=5;" parent="1" vertex="1">
          <mxGeometry x="371" y="852" width="160" height="40" as="geometry" />
        </mxCell>
        <mxCell id="m84s4OXWv2M9TysQhL6w-180" style="edgeStyle=orthogonalEdgeStyle;rounded=0;orthogonalLoop=1;jettySize=auto;html=1;exitX=0.5;exitY=1;exitDx=0;exitDy=0;" parent="1" edge="1">
          <mxGeometry relative="1" as="geometry">
            <mxPoint x="371" y="806.5" as="sourcePoint" />
            <mxPoint x="371" y="806.5" as="targetPoint" />
          </mxGeometry>
        </mxCell>
        <mxCell id="OIhTahyZ610Ylq-gmsro-2" value="" style="edgeStyle=orthogonalEdgeStyle;rounded=0;orthogonalLoop=1;jettySize=auto;html=1;strokeWidth=5;endArrow=none;endFill=0;" parent="1" source="m84s4OXWv2M9TysQhL6w-181" target="OIhTahyZ610Ylq-gmsro-1" edge="1">
          <mxGeometry relative="1" as="geometry" />
        </mxCell>
        <mxCell id="m84s4OXWv2M9TysQhL6w-181" value="&lt;font style=&quot;font-size: 17px;&quot;&gt;Request&lt;/font&gt; " style="rhombus;whiteSpace=wrap;html=1;fillColor=#008a00;fontColor=#ffffff;strokeColor=#005700;strokeWidth=5;" parent="1" vertex="1">
          <mxGeometry x="179" y="837" width="110" height="70" as="geometry" />
        </mxCell>
        <mxCell id="m84s4OXWv2M9TysQhL6w-182" value="&lt;b&gt;&lt;font color=&quot;#007fff&quot; style=&quot;font-size: 20px;&quot;&gt;[1,1]&lt;/font&gt;&lt;/b&gt;" style="text;html=1;strokeColor=none;fillColor=none;align=center;verticalAlign=middle;whiteSpace=wrap;rounded=0;" parent="1" vertex="1">
          <mxGeometry x="88" y="876.5" width="40" height="20" as="geometry" />
        </mxCell>
        <mxCell id="m84s4OXWv2M9TysQhL6w-183" value="&lt;b&gt;&lt;font color=&quot;#007fff&quot; style=&quot;font-size: 20px;&quot;&gt;[1,*]&lt;/font&gt;&lt;/b&gt;" style="text;html=1;strokeColor=none;fillColor=none;align=center;verticalAlign=middle;whiteSpace=wrap;rounded=0;" parent="1" vertex="1">
          <mxGeometry x="321" y="874" width="40" height="25" as="geometry" />
        </mxCell>
        <mxCell id="m84s4OXWv2M9TysQhL6w-190" value="&lt;font style=&quot;font-size: 25px;&quot;&gt;RequestInfo&lt;/font&gt;" style="text;whiteSpace=wrap;html=1;" parent="1" vertex="1">
          <mxGeometry x="380" y="920" width="110" height="30" as="geometry" />
        </mxCell>
        <mxCell id="m84s4OXWv2M9TysQhL6w-191" style="edgeStyle=orthogonalEdgeStyle;rounded=0;orthogonalLoop=1;jettySize=auto;html=1;exitX=1;exitY=0.5;exitDx=0;exitDy=0;entryX=0;entryY=0.5;entryDx=0;entryDy=0;strokeWidth=5;endArrow=none;endFill=0;" parent="1" source="m84s4OXWv2M9TysQhL6w-192" target="m84s4OXWv2M9TysQhL6w-195" edge="1">
          <mxGeometry relative="1" as="geometry" />
        </mxCell>
        <mxCell id="m84s4OXWv2M9TysQhL6w-192" value="&lt;font style=&quot;font-size: 27px;&quot;&gt;Deck&lt;/font&gt;" style="rounded=0;whiteSpace=wrap;html=1;fillColor=#1ba1e2;strokeColor=#006EAF;fontColor=#ffffff;strokeWidth=5;" parent="1" vertex="1">
          <mxGeometry x="-694" y="1175" width="90" height="40" as="geometry" />
        </mxCell>
        <mxCell id="m84s4OXWv2M9TysQhL6w-193" style="edgeStyle=orthogonalEdgeStyle;rounded=0;orthogonalLoop=1;jettySize=auto;html=1;exitX=0;exitY=0.5;exitDx=0;exitDy=0;entryX=1;entryY=0.5;entryDx=0;entryDy=0;strokeWidth=5;endArrow=none;endFill=0;" parent="1" source="m84s4OXWv2M9TysQhL6w-194" target="m84s4OXWv2M9TysQhL6w-195" edge="1">
          <mxGeometry relative="1" as="geometry" />
        </mxCell>
        <mxCell id="m84s4OXWv2M9TysQhL6w-194" value="&lt;pre dir=&quot;ltr&quot; style=&quot;text-align: left; line-height: 100%; font-size: 27px;&quot; id=&quot;tw-target-text&quot; data-placeholder=&quot;Traducción&quot; class=&quot;tw-data-text tw-text-large tw-ta&quot;&gt;&lt;font style=&quot;font-size: 27px;&quot;&gt;User&lt;/font&gt;&lt;/pre&gt;" style="rounded=0;whiteSpace=wrap;html=1;fillColor=#1ba1e2;strokeColor=#006EAF;fontColor=#ffffff;strokeWidth=5;" parent="1" vertex="1">
          <mxGeometry x="-304" y="1175" width="90" height="40" as="geometry" />
        </mxCell>
        <mxCell id="m84s4OXWv2M9TysQhL6w-195" value="&lt;font style=&quot;font-size: 17px;&quot;&gt;Have&lt;/font&gt;" style="rhombus;whiteSpace=wrap;html=1;fillColor=#008a00;fontColor=#ffffff;strokeColor=#005700;strokeWidth=5;" parent="1" vertex="1">
          <mxGeometry x="-514" y="1160" width="110" height="70" as="geometry" />
        </mxCell>
        <mxCell id="m84s4OXWv2M9TysQhL6w-196" value="&lt;b&gt;&lt;font color=&quot;#007fff&quot; style=&quot;font-size: 20px;&quot;&gt;[1,1]&lt;/font&gt;&lt;/b&gt;" style="text;html=1;strokeColor=none;fillColor=none;align=center;verticalAlign=middle;whiteSpace=wrap;rounded=0;" parent="1" vertex="1">
          <mxGeometry x="-354" y="1170" width="40" height="20" as="geometry" />
        </mxCell>
        <mxCell id="m84s4OXWv2M9TysQhL6w-197" value="&lt;b&gt;&lt;font color=&quot;#007fff&quot; style=&quot;font-size: 20px;&quot;&gt;[1,*]&lt;/font&gt;&lt;/b&gt;" style="text;html=1;strokeColor=none;fillColor=none;align=center;verticalAlign=middle;whiteSpace=wrap;rounded=0;" parent="1" vertex="1">
          <mxGeometry x="-596" y="1170" width="40" height="20" as="geometry" />
        </mxCell>
        <mxCell id="m84s4OXWv2M9TysQhL6w-210" value="" style="edgeStyle=orthogonalEdgeStyle;rounded=0;orthogonalLoop=1;jettySize=auto;html=1;strokeWidth=5;endArrow=none;endFill=0;" parent="1" source="m84s4OXWv2M9TysQhL6w-202" target="m84s4OXWv2M9TysQhL6w-207" edge="1">
          <mxGeometry relative="1" as="geometry" />
        </mxCell>
        <mxCell id="m84s4OXWv2M9TysQhL6w-202" value="&lt;pre dir=&quot;ltr&quot; style=&quot;text-align: left; line-height: 100%; font-size: 27px;&quot; id=&quot;tw-target-text&quot; data-placeholder=&quot;Traducción&quot; class=&quot;tw-data-text tw-text-large tw-ta&quot;&gt;&lt;font style=&quot;font-size: 27px;&quot;&gt;User&lt;/font&gt;&lt;/pre&gt;" style="rounded=0;whiteSpace=wrap;html=1;fillColor=#1ba1e2;strokeColor=#006EAF;fontColor=#ffffff;strokeWidth=5;" parent="1" vertex="1">
          <mxGeometry x="398" y="1175" width="90" height="40" as="geometry" />
        </mxCell>
        <mxCell id="m84s4OXWv2M9TysQhL6w-204" value="" style="edgeStyle=orthogonalEdgeStyle;rounded=0;orthogonalLoop=1;jettySize=auto;html=1;endSize=10;endArrow=none;endFill=0;strokeWidth=5;" parent="1" source="m84s4OXWv2M9TysQhL6w-205" target="m84s4OXWv2M9TysQhL6w-207" edge="1">
          <mxGeometry relative="1" as="geometry" />
        </mxCell>
        <mxCell id="m84s4OXWv2M9TysQhL6w-205" value="&lt;font style=&quot;font-size: 27px;&quot;&gt;Role&lt;/font&gt;" style="rounded=0;whiteSpace=wrap;html=1;fillColor=#1ba1e2;strokeColor=#006EAF;fontColor=#ffffff;strokeWidth=5;" parent="1" vertex="1">
          <mxGeometry x="8" y="1175" width="90" height="40" as="geometry" />
        </mxCell>
        <mxCell id="m84s4OXWv2M9TysQhL6w-207" value="&lt;font style=&quot;font-size: 17px;&quot;&gt;IS&lt;/font&gt;" style="rhombus;whiteSpace=wrap;html=1;fillColor=#008a00;fontColor=#ffffff;strokeColor=#005700;strokeWidth=6;" parent="1" vertex="1">
          <mxGeometry x="188" y="1160" width="110" height="70" as="geometry" />
        </mxCell>
        <mxCell id="m84s4OXWv2M9TysQhL6w-208" value="&lt;b&gt;&lt;font color=&quot;#007fff&quot; style=&quot;font-size: 20px;&quot;&gt;[1,1]&lt;/font&gt;&lt;/b&gt;" style="text;html=1;strokeColor=none;fillColor=none;align=center;verticalAlign=middle;whiteSpace=wrap;rounded=0;" parent="1" vertex="1">
          <mxGeometry x="105" y="1170" width="40" height="20" as="geometry" />
        </mxCell>
        <mxCell id="m84s4OXWv2M9TysQhL6w-211" value="&lt;b&gt;&lt;font color=&quot;#007fff&quot; style=&quot;font-size: 20px;&quot;&gt;[1,*]&lt;/font&gt;&lt;/b&gt;" style="text;html=1;strokeColor=none;fillColor=none;align=center;verticalAlign=middle;whiteSpace=wrap;rounded=0;" parent="1" vertex="1">
          <mxGeometry x="349" y="1168" width="40" height="20" as="geometry" />
        </mxCell>
        <mxCell id="m84s4OXWv2M9TysQhL6w-212" value="&lt;pre dir=&quot;ltr&quot; style=&quot;text-align: left; line-height: 100%; font-size: 27px;&quot; id=&quot;tw-target-text&quot; data-placeholder=&quot;Traducción&quot; class=&quot;tw-data-text tw-text-large tw-ta&quot;&gt;&lt;font style=&quot;font-size: 27px;&quot;&gt;User&lt;/font&gt;&lt;/pre&gt;" style="rounded=0;whiteSpace=wrap;html=1;fillColor=#1ba1e2;strokeColor=#006EAF;fontColor=#ffffff;strokeWidth=5;" parent="1" vertex="1">
          <mxGeometry x="-11" y="850" width="90" height="40" as="geometry" />
        </mxCell>
        <mxCell id="OIhTahyZ610Ylq-gmsro-1" value="&lt;font style=&quot;font-size: 27px;&quot;&gt;Deck&lt;/font&gt;" style="rounded=0;whiteSpace=wrap;html=1;fillColor=#1ba1e2;strokeColor=#006EAF;fontColor=#ffffff;strokeWidth=5;" parent="1" vertex="1">
          <mxGeometry x="189" y="760" width="90" height="40" as="geometry" />
        </mxCell>
        <mxCell id="OIhTahyZ610Ylq-gmsro-4" value="&lt;b&gt;&lt;font color=&quot;#007fff&quot; style=&quot;font-size: 20px;&quot;&gt;[1,1]&lt;/font&gt;&lt;/b&gt;" style="text;html=1;strokeColor=none;fillColor=none;align=center;verticalAlign=middle;whiteSpace=wrap;rounded=0;" parent="1" vertex="1">
          <mxGeometry x="240" y="808" width="40" height="20" as="geometry" />
        </mxCell>
        <mxCell id="s4LA91QQ77V4tFSlohtm-96" style="edgeStyle=orthogonalEdgeStyle;rounded=0;orthogonalLoop=1;jettySize=auto;html=1;exitX=1;exitY=0.5;exitDx=0;exitDy=0;entryX=0;entryY=0.5;entryDx=0;entryDy=0;strokeWidth=6;endArrow=none;endFill=0;" edge="1" parent="1" source="s4LA91QQ77V4tFSlohtm-98">
          <mxGeometry relative="1" as="geometry">
            <mxPoint x="355.00000000001" y="324.9999999999999" as="targetPoint" />
          </mxGeometry>
        </mxCell>
        <mxCell id="s4LA91QQ77V4tFSlohtm-97" style="edgeStyle=orthogonalEdgeStyle;rounded=0;orthogonalLoop=1;jettySize=auto;html=1;exitX=1;exitY=0.75;exitDx=0;exitDy=0;entryX=0;entryY=0.5;entryDx=0;entryDy=0;strokeWidth=5;endArrow=none;endFill=0;" edge="1" parent="1" source="s4LA91QQ77V4tFSlohtm-98" target="s4LA91QQ77V4tFSlohtm-115">
          <mxGeometry relative="1" as="geometry" />
        </mxCell>
        <mxCell id="s4LA91QQ77V4tFSlohtm-98" value="" style="rounded=0;whiteSpace=wrap;html=1;fillColor=#f5f5f5;fontColor=#333333;strokeColor=#666666;strokeWidth=5;" vertex="1" parent="1">
          <mxGeometry x="-185" y="200" width="500" height="250" as="geometry" />
        </mxCell>
        <mxCell id="s4LA91QQ77V4tFSlohtm-99" style="edgeStyle=orthogonalEdgeStyle;rounded=0;orthogonalLoop=1;jettySize=auto;html=1;exitX=1;exitY=0.5;exitDx=0;exitDy=0;entryX=0;entryY=0.5;entryDx=0;entryDy=0;strokeWidth=5;endArrow=none;endFill=0;" edge="1" parent="1" source="s4LA91QQ77V4tFSlohtm-100" target="s4LA91QQ77V4tFSlohtm-113">
          <mxGeometry relative="1" as="geometry" />
        </mxCell>
        <mxCell id="s4LA91QQ77V4tFSlohtm-100" value="&lt;font style=&quot;font-size: 27px;&quot;&gt;Deck&lt;/font&gt;" style="rounded=0;whiteSpace=wrap;html=1;fillColor=#1ba1e2;strokeColor=#006EAF;fontColor=#ffffff;strokeWidth=5;" vertex="1" parent="1">
          <mxGeometry x="-535" y="275" width="90" height="40" as="geometry" />
        </mxCell>
        <mxCell id="s4LA91QQ77V4tFSlohtm-101" value="" style="edgeStyle=orthogonalEdgeStyle;rounded=0;orthogonalLoop=1;jettySize=auto;html=1;endArrow=none;endFill=0;strokeWidth=5;" edge="1" parent="1" source="s4LA91QQ77V4tFSlohtm-102" target="s4LA91QQ77V4tFSlohtm-123">
          <mxGeometry relative="1" as="geometry" />
        </mxCell>
        <mxCell id="s4LA91QQ77V4tFSlohtm-102" value="&lt;font style=&quot;font-size: 27px;&quot;&gt;Tournament&lt;/font&gt;" style="rounded=0;whiteSpace=wrap;html=1;fillColor=#1ba1e2;strokeColor=#006EAF;fontColor=#ffffff;strokeWidth=5;" vertex="1" parent="1">
          <mxGeometry x="10" y="370" width="160" height="40" as="geometry" />
        </mxCell>
        <mxCell id="s4LA91QQ77V4tFSlohtm-103" style="edgeStyle=orthogonalEdgeStyle;rounded=0;orthogonalLoop=1;jettySize=auto;html=1;exitX=0;exitY=0.5;exitDx=0;exitDy=0;entryX=1;entryY=0.5;entryDx=0;entryDy=0;strokeWidth=5;endArrow=none;endFill=0;" edge="1" parent="1" source="s4LA91QQ77V4tFSlohtm-106" target="s4LA91QQ77V4tFSlohtm-113">
          <mxGeometry relative="1" as="geometry" />
        </mxCell>
        <mxCell id="s4LA91QQ77V4tFSlohtm-104" value="" style="edgeStyle=orthogonalEdgeStyle;rounded=0;orthogonalLoop=1;jettySize=auto;html=1;endArrow=none;endFill=0;strokeWidth=5;" edge="1" parent="1" source="s4LA91QQ77V4tFSlohtm-106">
          <mxGeometry relative="1" as="geometry">
            <mxPoint x="35" y="294.99999999999994" as="targetPoint" />
          </mxGeometry>
        </mxCell>
        <mxCell id="s4LA91QQ77V4tFSlohtm-105" style="edgeStyle=orthogonalEdgeStyle;rounded=0;orthogonalLoop=1;jettySize=auto;html=1;exitX=0.5;exitY=1;exitDx=0;exitDy=0;endArrow=none;endFill=0;strokeWidth=5;entryX=0;entryY=0.5;entryDx=0;entryDy=0;" edge="1" parent="1" source="s4LA91QQ77V4tFSlohtm-106" target="s4LA91QQ77V4tFSlohtm-131">
          <mxGeometry relative="1" as="geometry">
            <mxPoint x="-80" y="480" as="targetPoint" />
          </mxGeometry>
        </mxCell>
        <mxCell id="s4LA91QQ77V4tFSlohtm-106" value="&lt;pre dir=&quot;ltr&quot; style=&quot;text-align: left; line-height: 100%; font-size: 27px;&quot; id=&quot;tw-target-text&quot; data-placeholder=&quot;Traducción&quot; class=&quot;tw-data-text tw-text-large tw-ta&quot;&gt;&lt;font style=&quot;font-size: 27px;&quot;&gt;User&lt;/font&gt;&lt;/pre&gt;" style="rounded=0;whiteSpace=wrap;html=1;fillColor=#1ba1e2;strokeColor=#006EAF;fontColor=#ffffff;strokeWidth=5;" vertex="1" parent="1">
          <mxGeometry x="-125" y="275" width="90" height="40" as="geometry" />
        </mxCell>
        <mxCell id="s4LA91QQ77V4tFSlohtm-107" style="edgeStyle=orthogonalEdgeStyle;rounded=0;orthogonalLoop=1;jettySize=auto;html=1;entryX=1;entryY=0.5;entryDx=0;entryDy=0;endArrow=none;endFill=0;strokeWidth=5;" edge="1" parent="1" source="s4LA91QQ77V4tFSlohtm-108">
          <mxGeometry relative="1" as="geometry">
            <mxPoint x="145" y="294.99999999999994" as="targetPoint" />
          </mxGeometry>
        </mxCell>
        <mxCell id="s4LA91QQ77V4tFSlohtm-108" value="&lt;font style=&quot;font-size: 27px;&quot;&gt;Date&lt;/font&gt;" style="rounded=0;whiteSpace=wrap;html=1;fillColor=#1ba1e2;strokeColor=#006EAF;fontColor=#ffffff;perimeterSpacing=0;strokeWidth=5;" vertex="1" parent="1">
          <mxGeometry x="225" y="275" width="80" height="40" as="geometry" />
        </mxCell>
        <mxCell id="s4LA91QQ77V4tFSlohtm-109" style="edgeStyle=orthogonalEdgeStyle;rounded=0;orthogonalLoop=1;jettySize=auto;html=1;exitX=1;exitY=0.5;exitDx=0;exitDy=0;entryX=1;entryY=0.5;entryDx=0;entryDy=0;" edge="1" parent="1">
          <mxGeometry relative="1" as="geometry">
            <mxPoint x="160" y="295" as="sourcePoint" />
            <mxPoint x="160" y="295" as="targetPoint" />
          </mxGeometry>
        </mxCell>
        <mxCell id="s4LA91QQ77V4tFSlohtm-110" style="edgeStyle=orthogonalEdgeStyle;rounded=0;orthogonalLoop=1;jettySize=auto;html=1;exitX=0.5;exitY=1;exitDx=0;exitDy=0;" edge="1" parent="1">
          <mxGeometry relative="1" as="geometry">
            <mxPoint x="105" y="330" as="sourcePoint" />
            <mxPoint x="105" y="330" as="targetPoint" />
          </mxGeometry>
        </mxCell>
        <mxCell id="s4LA91QQ77V4tFSlohtm-111" style="edgeStyle=orthogonalEdgeStyle;rounded=0;orthogonalLoop=1;jettySize=auto;html=1;exitX=0.5;exitY=1;exitDx=0;exitDy=0;" edge="1" parent="1" source="s4LA91QQ77V4tFSlohtm-98" target="s4LA91QQ77V4tFSlohtm-98">
          <mxGeometry relative="1" as="geometry" />
        </mxCell>
        <mxCell id="s4LA91QQ77V4tFSlohtm-112" value="&lt;font style=&quot;font-size: 27px;&quot;&gt;Match&lt;/font&gt;" style="text;html=1;strokeColor=none;fillColor=none;align=center;verticalAlign=middle;whiteSpace=wrap;rounded=0;" vertex="1" parent="1">
          <mxGeometry x="215" y="400" width="60" height="30" as="geometry" />
        </mxCell>
        <mxCell id="s4LA91QQ77V4tFSlohtm-113" value="&lt;font style=&quot;font-size: 17px;&quot;&gt;Has&lt;/font&gt;" style="rhombus;whiteSpace=wrap;html=1;fillColor=#008a00;fontColor=#ffffff;strokeColor=#005700;strokeWidth=5;" vertex="1" parent="1">
          <mxGeometry x="-359" y="260" width="110" height="70" as="geometry" />
        </mxCell>
        <mxCell id="s4LA91QQ77V4tFSlohtm-114" style="edgeStyle=orthogonalEdgeStyle;rounded=0;orthogonalLoop=1;jettySize=auto;html=1;exitX=1;exitY=0.5;exitDx=0;exitDy=0;entryX=0.5;entryY=1;entryDx=0;entryDy=0;endArrow=none;endFill=0;strokeWidth=5;" edge="1" parent="1" target="s4LA91QQ77V4tFSlohtm-102">
          <mxGeometry relative="1" as="geometry">
            <mxPoint x="-25" y="515" as="sourcePoint" />
          </mxGeometry>
        </mxCell>
        <mxCell id="s4LA91QQ77V4tFSlohtm-115" value="&lt;pre dir=&quot;ltr&quot; style=&quot;text-align:left&quot; id=&quot;tw-target-text&quot; data-placeholder=&quot;Traducción&quot; class=&quot;tw-data-text tw-text-large tw-ta&quot;&gt;&lt;span style=&quot;font-size: 20px;&quot; lang=&quot;en&quot; class=&quot;Y2IQFc&quot;&gt;Round&lt;/span&gt;&lt;/pre&gt;" style="ellipse;whiteSpace=wrap;html=1;fillColor=#a0522d;strokeColor=#6D1F00;fontColor=#ffffff;strokeWidth=5;" vertex="1" parent="1">
          <mxGeometry x="355" y="363" width="80" height="50" as="geometry" />
        </mxCell>
        <mxCell id="s4LA91QQ77V4tFSlohtm-116" value="&lt;b&gt;&lt;font color=&quot;#007fff&quot; style=&quot;font-size: 20px;&quot;&gt;[1,1]&lt;/font&gt;&lt;/b&gt;" style="text;html=1;strokeColor=none;fillColor=none;align=center;verticalAlign=middle;whiteSpace=wrap;rounded=0;" vertex="1" parent="1">
          <mxGeometry x="-174" y="270" width="40" height="20" as="geometry" />
        </mxCell>
        <mxCell id="s4LA91QQ77V4tFSlohtm-117" value="&lt;b&gt;&lt;font color=&quot;#007fff&quot; style=&quot;font-size: 20px;&quot;&gt;[1,*]&lt;/font&gt;&lt;/b&gt;" style="text;html=1;strokeColor=none;fillColor=none;align=center;verticalAlign=middle;whiteSpace=wrap;rounded=0;" vertex="1" parent="1">
          <mxGeometry x="-437" y="270" width="40" height="20" as="geometry" />
        </mxCell>
        <mxCell id="s4LA91QQ77V4tFSlohtm-118" value="&lt;b&gt;&lt;font color=&quot;#007fff&quot; style=&quot;font-size: 20px;&quot;&gt;[1,1]&lt;/font&gt;&lt;/b&gt;" style="text;html=1;strokeColor=none;fillColor=none;align=center;verticalAlign=middle;whiteSpace=wrap;rounded=0;" vertex="1" parent="1">
          <mxGeometry x="-29" y="303" width="40" height="20" as="geometry" />
        </mxCell>
        <mxCell id="s4LA91QQ77V4tFSlohtm-119" value="&lt;b&gt;&lt;font color=&quot;#007fff&quot; style=&quot;font-size: 20px;&quot;&gt;[1,1]&lt;/font&gt;&lt;/b&gt;" style="text;html=1;strokeColor=none;fillColor=none;align=center;verticalAlign=middle;whiteSpace=wrap;rounded=0;" vertex="1" parent="1">
          <mxGeometry x="-28" y="258" width="40" height="20" as="geometry" />
        </mxCell>
        <mxCell id="s4LA91QQ77V4tFSlohtm-120" value="&lt;b&gt;&lt;font color=&quot;#007fff&quot; style=&quot;font-size: 20px;&quot;&gt;[1,*]&lt;/font&gt;&lt;/b&gt;" style="text;html=1;strokeColor=none;fillColor=none;align=center;verticalAlign=middle;whiteSpace=wrap;rounded=0;" vertex="1" parent="1">
          <mxGeometry x="179" y="268.5" width="40" height="25" as="geometry" />
        </mxCell>
        <mxCell id="s4LA91QQ77V4tFSlohtm-121" value="&lt;b&gt;&lt;font color=&quot;#007fff&quot; style=&quot;font-size: 20px;&quot;&gt;[1,1]&lt;/font&gt;&lt;/b&gt;" style="text;html=1;strokeColor=none;fillColor=none;align=center;verticalAlign=middle;whiteSpace=wrap;rounded=0;" vertex="1" parent="1">
          <mxGeometry x="98" y="343" width="40" height="20" as="geometry" />
        </mxCell>
        <mxCell id="s4LA91QQ77V4tFSlohtm-122" value="" style="endArrow=none;html=1;rounded=0;entryX=0.5;entryY=0;entryDx=0;entryDy=0;exitX=1;exitY=0.5;exitDx=0;exitDy=0;targetPerimeterSpacing=1;strokeWidth=6;endSize=5;" edge="1" parent="1" source="s4LA91QQ77V4tFSlohtm-106">
          <mxGeometry width="50" height="50" relative="1" as="geometry">
            <mxPoint x="55" y="340" as="sourcePoint" />
            <mxPoint x="90" y="259.99999999999994" as="targetPoint" />
          </mxGeometry>
        </mxCell>
        <mxCell id="s4LA91QQ77V4tFSlohtm-123" value="&lt;font style=&quot;font-size: 17px;&quot;&gt;Play&lt;/font&gt;" style="rhombus;whiteSpace=wrap;html=1;fillColor=#008a00;fontColor=#ffffff;strokeColor=#005700;strokeWidth=6;" vertex="1" parent="1">
          <mxGeometry x="35" y="260" width="110" height="70" as="geometry" />
        </mxCell>
        <mxCell id="s4LA91QQ77V4tFSlohtm-124" value="" style="edgeStyle=orthogonalEdgeStyle;rounded=0;orthogonalLoop=1;jettySize=auto;html=1;endSize=10;endArrow=none;endFill=0;strokeWidth=5;" edge="1" parent="1" source="s4LA91QQ77V4tFSlohtm-125" target="s4LA91QQ77V4tFSlohtm-127">
          <mxGeometry relative="1" as="geometry" />
        </mxCell>
        <mxCell id="s4LA91QQ77V4tFSlohtm-125" value="&lt;font style=&quot;font-size: 27px;&quot;&gt;Role&lt;/font&gt;" style="rounded=0;whiteSpace=wrap;html=1;fillColor=#1ba1e2;strokeColor=#006EAF;fontColor=#ffffff;strokeWidth=5;" vertex="1" parent="1">
          <mxGeometry x="-345" y="125" width="90" height="40" as="geometry" />
        </mxCell>
        <mxCell id="s4LA91QQ77V4tFSlohtm-126" value="" style="edgeStyle=orthogonalEdgeStyle;rounded=0;orthogonalLoop=1;jettySize=auto;html=1;strokeWidth=5;endArrow=none;endFill=0;" edge="1" parent="1" source="s4LA91QQ77V4tFSlohtm-127" target="s4LA91QQ77V4tFSlohtm-106">
          <mxGeometry relative="1" as="geometry" />
        </mxCell>
        <mxCell id="s4LA91QQ77V4tFSlohtm-127" value="&lt;font style=&quot;font-size: 17px;&quot;&gt;IS&lt;/font&gt;" style="rhombus;whiteSpace=wrap;html=1;fillColor=#008a00;fontColor=#ffffff;strokeColor=#005700;strokeWidth=6;" vertex="1" parent="1">
          <mxGeometry x="-135" y="110" width="110" height="70" as="geometry" />
        </mxCell>
        <mxCell id="s4LA91QQ77V4tFSlohtm-128" value="&lt;pre dir=&quot;ltr&quot; style=&quot;text-align: left; font-size: 11px;&quot; id=&quot;tw-target-text&quot; data-placeholder=&quot;Traducción&quot; class=&quot;tw-data-text tw-text-large tw-ta&quot;&gt;&lt;font style=&quot;font-size: 20px;&quot;&gt;Result&lt;/font&gt;&lt;/pre&gt;" style="ellipse;whiteSpace=wrap;html=1;fillColor=#a0522d;strokeColor=#6D1F00;fontColor=#ffffff;strokeWidth=5;" vertex="1" parent="1">
          <mxGeometry x="355" y="300" width="80" height="50" as="geometry" />
        </mxCell>
        <mxCell id="s4LA91QQ77V4tFSlohtm-129" value="&lt;pre dir=&quot;ltr&quot; style=&quot;text-align: left; font-size: 11px;&quot; id=&quot;tw-target-text&quot; data-placeholder=&quot;Traducción&quot; class=&quot;tw-data-text tw-text-large tw-ta&quot;&gt;&lt;font style=&quot;font-size: 20px;&quot;&gt;Date&lt;/font&gt;&lt;/pre&gt;" style="ellipse;whiteSpace=wrap;html=1;fillColor=#a0522d;strokeColor=#6D1F00;fontColor=#ffffff;strokeWidth=5;" vertex="1" parent="1">
          <mxGeometry x="-282" y="429" width="80" height="50" as="geometry" />
        </mxCell>
        <mxCell id="s4LA91QQ77V4tFSlohtm-130" value="&lt;pre dir=&quot;ltr&quot; style=&quot;text-align: left; font-size: 11px;&quot; id=&quot;tw-target-text&quot; data-placeholder=&quot;Traducción&quot; class=&quot;tw-data-text tw-text-large tw-ta&quot;&gt;&lt;font style=&quot;font-size: 17px;&quot;&gt;Status&lt;/font&gt;&lt;br&gt;&lt;/pre&gt;" style="ellipse;whiteSpace=wrap;html=1;fillColor=#a0522d;strokeColor=#6D1F00;fontColor=#ffffff;strokeWidth=5;" vertex="1" parent="1">
          <mxGeometry x="-399" y="429" width="80" height="50" as="geometry" />
        </mxCell>
        <mxCell id="s4LA91QQ77V4tFSlohtm-131" value="&lt;font style=&quot;font-size: 17px;&quot;&gt;Create&lt;/font&gt;" style="rhombus;whiteSpace=wrap;html=1;fillColor=#008a00;fontColor=#ffffff;strokeColor=#005700;strokeWidth=5;" vertex="1" parent="1">
          <mxGeometry x="-50" y="480" width="110" height="70" as="geometry" />
        </mxCell>
        <mxCell id="s4LA91QQ77V4tFSlohtm-132" value="&lt;b&gt;&lt;font color=&quot;#007fff&quot; style=&quot;font-size: 20px;&quot;&gt;[1,1]&lt;/font&gt;&lt;/b&gt;" style="text;html=1;strokeColor=none;fillColor=none;align=center;verticalAlign=middle;whiteSpace=wrap;rounded=0;" vertex="1" parent="1">
          <mxGeometry x="-245" y="120" width="40" height="20" as="geometry" />
        </mxCell>
        <mxCell id="s4LA91QQ77V4tFSlohtm-133" value="&lt;b&gt;&lt;font color=&quot;#007fff&quot; style=&quot;font-size: 20px;&quot;&gt;[1,*]&lt;/font&gt;&lt;/b&gt;" style="text;html=1;strokeColor=none;fillColor=none;align=center;verticalAlign=middle;whiteSpace=wrap;rounded=0;" vertex="1" parent="1">
          <mxGeometry x="-125" y="245" width="40" height="25" as="geometry" />
        </mxCell>
        <mxCell id="s4LA91QQ77V4tFSlohtm-134" value="&lt;b&gt;&lt;font color=&quot;#007fff&quot; style=&quot;font-size: 20px;&quot;&gt;[1,1]&lt;/font&gt;&lt;/b&gt;" style="text;html=1;strokeColor=none;fillColor=none;align=center;verticalAlign=middle;whiteSpace=wrap;rounded=0;" vertex="1" parent="1">
          <mxGeometry x="-125" y="323" width="40" height="20" as="geometry" />
        </mxCell>
        <mxCell id="s4LA91QQ77V4tFSlohtm-135" value="&lt;b&gt;&lt;font color=&quot;#007fff&quot; style=&quot;font-size: 20px;&quot;&gt;[1,*]&lt;/font&gt;&lt;/b&gt;" style="text;html=1;strokeColor=none;fillColor=none;align=center;verticalAlign=middle;whiteSpace=wrap;rounded=0;" vertex="1" parent="1">
          <mxGeometry x="95" y="415" width="40" height="25" as="geometry" />
        </mxCell>
        <mxCell id="s4LA91QQ77V4tFSlohtm-136" value="&lt;b&gt;&lt;font color=&quot;#007fff&quot; style=&quot;font-size: 20px;&quot;&gt;[1,1]&lt;/font&gt;&lt;/b&gt;" style="text;html=1;strokeColor=none;fillColor=none;align=center;verticalAlign=middle;whiteSpace=wrap;rounded=0;" vertex="1" parent="1">
          <mxGeometry x="-485" y="323" width="40" height="20" as="geometry" />
        </mxCell>
        <mxCell id="s4LA91QQ77V4tFSlohtm-137" style="edgeStyle=orthogonalEdgeStyle;rounded=0;orthogonalLoop=1;jettySize=auto;html=1;exitX=0;exitY=0.5;exitDx=0;exitDy=0;entryX=0.5;entryY=1;entryDx=0;entryDy=0;endArrow=none;endFill=0;strokeWidth=5;" edge="1" parent="1" source="s4LA91QQ77V4tFSlohtm-141" target="s4LA91QQ77V4tFSlohtm-100">
          <mxGeometry relative="1" as="geometry" />
        </mxCell>
        <mxCell id="s4LA91QQ77V4tFSlohtm-138" style="edgeStyle=orthogonalEdgeStyle;rounded=0;orthogonalLoop=1;jettySize=auto;html=1;exitX=1;exitY=0.5;exitDx=0;exitDy=0;strokeWidth=5;endArrow=none;endFill=0;" edge="1" parent="1" source="s4LA91QQ77V4tFSlohtm-141" target="s4LA91QQ77V4tFSlohtm-102">
          <mxGeometry relative="1" as="geometry" />
        </mxCell>
        <mxCell id="s4LA91QQ77V4tFSlohtm-139" style="edgeStyle=orthogonalEdgeStyle;rounded=0;orthogonalLoop=1;jettySize=auto;html=1;exitX=1;exitY=1;exitDx=0;exitDy=0;entryX=0.5;entryY=0;entryDx=0;entryDy=0;strokeWidth=5;endArrow=none;endFill=0;" edge="1" parent="1" source="s4LA91QQ77V4tFSlohtm-141" target="s4LA91QQ77V4tFSlohtm-129">
          <mxGeometry relative="1" as="geometry" />
        </mxCell>
        <mxCell id="s4LA91QQ77V4tFSlohtm-140" style="edgeStyle=orthogonalEdgeStyle;rounded=0;orthogonalLoop=1;jettySize=auto;html=1;exitX=0;exitY=1;exitDx=0;exitDy=0;entryX=0.5;entryY=0;entryDx=0;entryDy=0;strokeWidth=5;endArrow=none;endFill=0;" edge="1" parent="1" source="s4LA91QQ77V4tFSlohtm-141" target="s4LA91QQ77V4tFSlohtm-130">
          <mxGeometry relative="1" as="geometry" />
        </mxCell>
        <mxCell id="s4LA91QQ77V4tFSlohtm-141" value="&lt;font style=&quot;font-size: 17px;&quot;&gt;Request&lt;/font&gt; " style="rhombus;whiteSpace=wrap;html=1;fillColor=#008a00;fontColor=#ffffff;strokeColor=#005700;strokeWidth=5;" vertex="1" parent="1">
          <mxGeometry x="-355" y="355" width="110" height="70" as="geometry" />
        </mxCell>
        <mxCell id="s4LA91QQ77V4tFSlohtm-142" value="" style="endArrow=none;html=1;rounded=0;entryX=0;entryY=0.5;entryDx=0;entryDy=0;exitX=1;exitY=0.5;exitDx=0;exitDy=0;strokeWidth=5;" edge="1" parent="1" source="s4LA91QQ77V4tFSlohtm-141" target="s4LA91QQ77V4tFSlohtm-106">
          <mxGeometry width="50" height="50" relative="1" as="geometry">
            <mxPoint x="-250" y="390" as="sourcePoint" />
            <mxPoint x="-200" y="343" as="targetPoint" />
          </mxGeometry>
        </mxCell>
        <mxCell id="s4LA91QQ77V4tFSlohtm-143" value="&lt;b&gt;&lt;font color=&quot;#007fff&quot; style=&quot;font-size: 20px;&quot;&gt;[1,*]&lt;/font&gt;&lt;/b&gt;" style="text;html=1;strokeColor=none;fillColor=none;align=center;verticalAlign=middle;whiteSpace=wrap;rounded=0;" vertex="1" parent="1">
          <mxGeometry x="-35" y="357" width="40" height="25" as="geometry" />
        </mxCell>
        <mxCell id="s4LA91QQ77V4tFSlohtm-144" value="&lt;b&gt;&lt;font color=&quot;#007fff&quot; style=&quot;font-size: 20px;&quot;&gt;[1,1]&lt;/font&gt;&lt;/b&gt;" style="text;html=1;strokeColor=none;fillColor=none;align=center;verticalAlign=middle;whiteSpace=wrap;rounded=0;" vertex="1" parent="1">
          <mxGeometry x="-240" y="330" width="40" height="20" as="geometry" />
        </mxCell>
        <mxCell id="s4LA91QQ77V4tFSlohtm-145" value="" style="edgeStyle=orthogonalEdgeStyle;rounded=0;orthogonalLoop=1;jettySize=auto;html=1;strokeWidth=5;endArrow=none;endFill=0;" edge="1" parent="1" source="s4LA91QQ77V4tFSlohtm-146" target="s4LA91QQ77V4tFSlohtm-149">
          <mxGeometry relative="1" as="geometry" />
        </mxCell>
        <mxCell id="s4LA91QQ77V4tFSlohtm-146" value="&lt;pre dir=&quot;ltr&quot; style=&quot;text-align: left; line-height: 100%; font-size: 27px;&quot; id=&quot;tw-target-text&quot; data-placeholder=&quot;Traducción&quot; class=&quot;tw-data-text tw-text-large tw-ta&quot;&gt;&lt;font style=&quot;font-size: 27px;&quot;&gt;User&lt;/font&gt;&lt;/pre&gt;" style="rounded=0;whiteSpace=wrap;html=1;fillColor=#1ba1e2;strokeColor=#006EAF;fontColor=#ffffff;strokeWidth=5;" vertex="1" parent="1">
          <mxGeometry x="471" y="1337" width="90" height="40" as="geometry" />
        </mxCell>
        <mxCell id="s4LA91QQ77V4tFSlohtm-147" value="" style="edgeStyle=orthogonalEdgeStyle;rounded=0;orthogonalLoop=1;jettySize=auto;html=1;endSize=10;endArrow=none;endFill=0;strokeWidth=5;" edge="1" parent="1" target="s4LA91QQ77V4tFSlohtm-149">
          <mxGeometry relative="1" as="geometry">
            <mxPoint x="171" y="1357" as="sourcePoint" />
          </mxGeometry>
        </mxCell>
        <mxCell id="s4LA91QQ77V4tFSlohtm-149" value="&lt;font style=&quot;font-size: 17px;&quot;&gt;Create&lt;/font&gt;" style="rhombus;whiteSpace=wrap;html=1;fillColor=#008a00;fontColor=#ffffff;strokeColor=#005700;strokeWidth=6;" vertex="1" parent="1">
          <mxGeometry x="261" y="1322" width="110" height="70" as="geometry" />
        </mxCell>
        <mxCell id="s4LA91QQ77V4tFSlohtm-150" value="&lt;b&gt;&lt;font color=&quot;#007fff&quot; style=&quot;font-size: 20px;&quot;&gt;[1,1]&lt;/font&gt;&lt;/b&gt;" style="text;html=1;strokeColor=none;fillColor=none;align=center;verticalAlign=middle;whiteSpace=wrap;rounded=0;" vertex="1" parent="1">
          <mxGeometry x="178" y="1332" width="40" height="20" as="geometry" />
        </mxCell>
        <mxCell id="s4LA91QQ77V4tFSlohtm-151" value="&lt;b&gt;&lt;font color=&quot;#007fff&quot; style=&quot;font-size: 20px;&quot;&gt;[1,*]&lt;/font&gt;&lt;/b&gt;" style="text;html=1;strokeColor=none;fillColor=none;align=center;verticalAlign=middle;whiteSpace=wrap;rounded=0;" vertex="1" parent="1">
          <mxGeometry x="422" y="1330" width="40" height="20" as="geometry" />
        </mxCell>
        <mxCell id="s4LA91QQ77V4tFSlohtm-152" value="&lt;font style=&quot;font-size: 27px;&quot;&gt;Tournament&lt;/font&gt;" style="rounded=0;whiteSpace=wrap;html=1;fillColor=#1ba1e2;strokeColor=#006EAF;fontColor=#ffffff;strokeWidth=5;" vertex="1" parent="1">
          <mxGeometry x="7" y="1337" width="160" height="40" as="geometry" />
        </mxCell>
      </root>
    </mxGraphModel>
  </diagram>
</mxfile>
